<?xml version="1.0" standalone="no"?>
<!DOCTYPE svg PUBLIC "-//W3C//DTD SVG 20010904//EN"
 "http://www.w3.org/TR/2001/REC-SVG-20010904/DTD/svg10.dtd">
<svg version="1.0" xmlns="http://www.w3.org/2000/svg"
 width="889.000000pt" height="500.000000pt" viewBox="0 0 889.000000 500.000000"
 preserveAspectRatio="xMidYMid meet">

<g transform="translate(0.000000,500.000000) scale(0.100000,-0.100000)"
fill="#000000" stroke="none">
<path d="M2835 3391 c-35 -16 -71 -64 -100 -136 -16 -38 -32 -74 -36 -79 -4
-5 -20 1 -35 13 -24 19 -30 20 -48 8 -25 -16 -62 -88 -72 -139 -6 -34 -3 -41
27 -69 l32 -30 -47 -107 c-74 -165 -81 -193 -66 -264 15 -69 55 -133 113 -184
60 -51 94 -66 152 -68 68 -1 100 21 132 92 14 32 43 94 64 140 l38 82 258
-206 c362 -289 371 -296 401 -322 47 -41 69 -53 85 -46 26 10 67 90 74 143 l5
48 -83 69 c-46 38 -96 79 -110 89 -24 18 -511 407 -532 425 -5 4 10 50 32 102
60 139 54 209 -27 322 -64 88 -191 146 -257 117z m136 -63 c40 -23 97 -84 123
-131 32 -57 35 -132 7 -191 -10 -23 -36 -79 -56 -126 -61 -138 -76 -172 -105
-235 -15 -33 -31 -71 -35 -84 -6 -21 -10 -18 -39 38 -60 118 -168 198 -257
189 -24 -2 -38 0 -35 7 30 78 62 135 76 135 46 0 108 135 88 190 -9 25 1 59
45 150 24 50 35 64 57 73 22 10 105 0 131 -15z m-347 -195 c-9 -39 -44 -94
-44 -70 0 18 37 97 45 97 3 0 2 -12 -1 -27z m86 -51 c0 -22 -22 -74 -42 -99
-8 -10 -17 -8 -39 7 l-28 21 23 43 c13 24 26 53 29 66 6 22 6 22 31 3 14 -10
26 -28 26 -41z m458 -347 c59 -47 114 -91 122 -98 78 -61 217 -173 227 -182 6
-5 65 -53 132 -105 101 -80 120 -99 121 -123 0 -29 -35 -107 -48 -107 -4 0
-50 35 -103 78 -52 42 -112 91 -133 107 -21 17 -109 86 -195 155 -86 69 -172
137 -191 152 -19 15 -50 40 -68 56 l-34 28 29 62 c15 34 29 62 31 62 2 0 52
-38 110 -85z m-503 5 c3 -5 14 -10 24 -10 33 0 127 -103 150 -164 24 -64 25
-83 11 -121 -17 -46 -37 -58 -94 -58 -81 0 -157 57 -210 157 -38 71 -36 134 5
175 24 24 39 31 69 31 21 0 42 -4 45 -10z"/>
<path d="M4695 3306 c-64 -15 -175 -74 -175 -93 0 -28 30 -24 105 13 102 50
168 57 212 20 57 -48 67 -126 38 -291 -9 -50 -19 -135 -22 -191 -5 -84 -3
-102 9 -106 29 -11 36 8 47 120 7 63 18 150 26 195 8 45 15 103 15 128 0 97
-57 189 -130 209 -43 12 -61 12 -125 -4z"/>
<path d="M5259 3157 c-25 -16 -40 -38 -54 -80 -17 -47 -28 -62 -66 -86 -76
-48 -109 -112 -84 -161 28 -54 113 -64 161 -19 l22 20 41 -20 c108 -56 191 8
191 147 0 34 3 42 19 42 33 0 86 -43 89 -74 4 -35 -16 -58 -74 -85 -43 -21
-57 -47 -30 -57 21 -8 110 41 141 77 22 27 26 39 21 68 -7 47 -52 89 -117 111
-43 15 -58 26 -75 55 -23 42 -86 85 -125 85 -14 0 -41 -10 -60 -23z m105 -48
c39 -30 34 -49 -13 -49 -21 0 -53 -3 -70 -6 -31 -7 -31 -6 -21 22 21 56 60 68
104 33z m48 -149 c-4 -92 -35 -139 -79 -123 -36 13 -72 44 -75 66 -2 16 -10
22 -28 22 -19 0 -25 -6 -31 -32 -3 -18 -12 -40 -19 -48 -16 -20 -54 -19 -71 1
-11 13 -10 21 5 49 19 34 84 85 109 85 7 0 17 4 23 10 11 11 107 29 144 27 24
-2 25 -5 22 -57z"/>
<path d="M4115 3153 c-3 -10 -1 -71 6 -135 14 -131 8 -161 -37 -178 -14 -6
-91 -10 -172 -10 l-147 0 39 23 c47 26 74 60 82 104 6 28 2 37 -28 67 -57 57
-175 59 -229 5 -25 -25 -25 -80 0 -110 16 -20 21 -21 34 -11 13 11 13 19 5 44
-10 28 -8 33 12 50 37 30 133 19 146 -17 11 -28 -6 -65 -39 -85 -35 -22 -98
-42 -190 -60 -59 -12 -83 -34 -56 -51 8 -5 128 -9 267 -9 247 0 253 -1 247
-20 -9 -28 20 -75 55 -90 39 -16 124 -8 149 14 17 15 19 14 49 -34 20 -33 38
-50 51 -50 32 0 35 19 7 58 -71 103 -18 166 139 166 172 1 213 -75 94 -172
-32 -26 -37 -49 -14 -58 19 -8 88 47 115 92 12 19 22 51 22 72 0 30 -7 43 -35
67 l-35 30 25 30 c86 104 81 196 -15 252 -43 26 -56 28 -147 28 -88 0 -107 -3
-150 -26 -58 -29 -95 -84 -95 -141 0 -22 13 -62 33 -100 l32 -63 -31 -32 -31
-32 -24 25 c-13 14 -36 33 -50 41 -24 15 -26 19 -17 51 6 23 6 62 -1 115 -6
44 -11 100 -11 124 0 39 -2 43 -24 43 -13 0 -27 -8 -31 -17z m492 -44 c46 -17
73 -49 73 -86 0 -39 -11 -63 -52 -113 -28 -34 -30 -35 -106 -36 -42 0 -91 -4
-108 -8 -29 -6 -32 -4 -57 42 -68 124 -6 211 150 212 39 0 84 -5 100 -11z
m-393 -348 c10 -11 16 -27 13 -34 -13 -34 -100 -27 -114 9 -3 9 2 32 12 50
l18 33 26 -18 c14 -10 34 -28 45 -40z"/>
<path d="M4368 2535 c-8 -16 11 -72 27 -79 8 -3 21 2 30 10 17 17 21 79 5 69
-5 -3 -10 -15 -10 -25 0 -33 -19 -32 -33 2 -7 18 -16 28 -19 23z"/>
<path d="M5615 2531 c-25 -11 -60 -49 -52 -57 3 -4 18 3 33 15 15 11 37 21 50
21 41 0 47 -29 39 -186 -5 -104 -4 -144 4 -144 7 0 11 21 11 53 0 28 5 84 10
122 11 84 0 143 -31 168 -23 19 -34 20 -64 8z"/>
<path d="M4041 2434 c-30 -38 -24 -119 13 -169 25 -34 29 -8 7 38 -32 66 -23
127 19 127 27 0 49 -47 57 -120 7 -75 23 -79 23 -5 0 62 23 129 42 123 19 -7
37 -66 37 -125 1 -29 6 -53 11 -53 6 0 10 17 10 39 0 100 67 182 100 122 16
-31 12 -64 -15 -115 -18 -33 -21 -46 -11 -46 13 0 36 40 51 88 11 37 -3 91
-28 107 -30 19 -57 10 -83 -26 l-21 -30 -13 30 c-21 51 -59 51 -81 -1 l-12
-30 -14 26 c-13 25 -41 46 -62 46 -5 0 -19 -12 -30 -26z"/>
<path d="M5015 2435 c-29 -28 -32 -66 -10 -109 14 -26 14 -30 -1 -41 -31 -22
-5 -35 71 -35 41 0 76 3 78 8 3 4 2 47 -2 95 -7 98 -13 107 -74 107 -27 0 -45
-7 -62 -25z m103 -7 c22 -22 13 -59 -22 -94 -19 -19 -38 -34 -43 -34 -18 0
-46 66 -40 92 10 39 78 63 105 36z m15 -150 c-6 -11 -53 -10 -53 1 0 5 10 15
23 24 20 13 23 13 28 -2 4 -9 5 -19 2 -23z"/>
<path d="M5396 2438 c-9 -12 -16 -30 -16 -40 0 -9 -11 -29 -24 -43 -27 -29
-37 -66 -24 -89 10 -18 43 -22 53 -6 3 6 15 5 32 -3 22 -10 28 -8 44 11 18 23
18 23 29 2 14 -26 24 -25 50 2 24 26 26 75 5 105 -13 19 -13 23 1 37 24 24 42
18 63 -21 17 -33 14 -56 -14 -98 -27 -39 -27 -57 0 -35 46 39 55 113 20 166
-20 31 -69 33 -87 4 -17 -27 -46 -25 -70 5 -24 31 -42 32 -62 3z m49 -28 c-5
-9 -45 -21 -45 -13 0 2 5 13 11 24 8 16 13 18 25 9 7 -7 12 -16 9 -20z m15
-66 c0 -19 -5 -44 -11 -55 -9 -17 -13 -18 -26 -7 -8 7 -19 21 -23 33 -8 21 -8
21 -24 -27 -8 -26 -26 -22 -26 5 0 23 27 54 65 75 35 20 45 14 45 -24z m32 11
c-2 -14 -6 -25 -8 -25 -2 0 -4 11 -4 25 0 14 4 25 9 25 4 0 6 -11 3 -25z m46
-27 c3 -23 -22 -57 -34 -45 -3 3 -2 21 2 41 7 41 27 43 32 4z"/>
<path d="M5865 2440 c-16 -17 -19 -18 -40 -4 -47 31 -84 -17 -72 -93 12 -72
60 -108 117 -86 17 6 34 7 44 1 41 -23 89 26 88 90 -1 42 -27 112 -42 112 -13
0 -13 -1 5 -43 29 -70 14 -137 -30 -137 -30 0 -29 -2 -9 46 18 42 13 88 -13
116 -20 23 -26 23 -48 -2z m40 -68 c0 -63 -13 -71 -31 -19 -10 28 -11 44 -3
59 18 33 34 15 34 -40z m-59 -7 c28 -64 30 -81 10 -88 -25 -10 -57 5 -71 34
-27 51 -15 109 23 109 7 0 24 -25 38 -55z"/>
<path d="M3857 2439 c-43 -25 -62 -123 -31 -167 30 -43 68 -12 62 51 -2 26 -8
33 -30 35 -25 3 -26 5 -16 27 14 32 59 50 87 35 28 -14 29 -60 1 -67 -25 -7
-26 -33 -2 -33 19 0 42 -18 42 -32 0 -4 -16 -8 -36 -8 -31 0 -35 -2 -24 -15
36 -44 99 9 68 57 -9 14 -12 31 -8 43 21 59 -54 108 -113 74z m11 -135 c-5
-26 -25 -28 -33 -3 -5 14 -2 25 6 30 18 10 32 -4 27 -27z"/>
<path d="M4765 2369 c9 -96 7 -99 -79 -99 -49 0 -57 2 -52 16 16 43 17 62 1
78 -23 23 -52 20 -81 -10 -28 -27 -27 -64 2 -94 17 -17 20 1 4 30 -13 25 -3
49 26 56 38 10 45 -3 27 -47 -9 -23 -12 -44 -7 -49 5 -5 44 -6 87 -3 103 8
110 17 95 126 -15 104 -32 101 -23 -4z"/>
<path d="M4851 2429 c-12 -13 -21 -33 -21 -45 0 -24 17 -34 59 -34 51 0 67
-39 27 -65 -19 -13 -29 -14 -45 -5 -12 6 -21 17 -21 25 0 8 -4 15 -10 15 -17
0 -11 -36 8 -53 40 -37 112 -6 112 47 0 31 -43 66 -81 66 -33 0 -37 10 -11 33
24 22 39 21 51 0 5 -10 13 -14 17 -10 14 13 -11 42 -39 45 -16 2 -33 -5 -46
-19z"/>
<path d="M5200 2431 c-18 -34 -11 -46 13 -23 23 22 24 22 40 4 21 -23 23 -101
3 -128 -13 -17 -18 -17 -36 -6 -31 19 -40 4 -11 -19 28 -23 38 -21 64 13 31
42 21 145 -17 170 -20 14 -45 8 -56 -11z"/>
<path d="M6046 2428 c-20 -28 -8 -47 13 -19 15 19 18 20 36 7 16 -11 20 -26
20 -70 0 -65 -15 -87 -46 -68 -12 8 -23 11 -25 9 -8 -8 7 -35 22 -41 42 -16
80 47 71 120 -8 74 -58 109 -91 62z"/>
<path d="M6195 2430 c-26 -28 -30 -98 -8 -140 14 -28 24 -35 48 -35 23 0 32 6
39 27 19 55 -52 109 -74 56 -8 -22 -9 -22 -9 4 -1 14 2 34 5 42 6 15 8 15 20
-1 10 -14 17 -16 31 -7 23 14 28 41 13 59 -17 21 -44 19 -65 -5z m55 -20 c0
-5 -4 -10 -9 -10 -6 0 -13 5 -16 10 -3 6 1 10 9 10 9 0 16 -4 16 -10z m10
-111 c0 -3 -7 -12 -15 -19 -18 -15 -40 -3 -26 14 6 7 8 16 5 19 -3 3 -3 11 2
18 5 9 11 7 21 -6 7 -11 13 -22 13 -26z"/>
<path d="M6320 2431 c-16 -30 -12 -133 6 -159 13 -19 24 -22 88 -22 60 0 76 4
91 20 20 22 30 93 21 144 -12 62 -25 39 -19 -33 5 -62 4 -70 -17 -91 -19 -19
-30 -22 -82 -18 -57 4 -77 16 -78 44 0 6 19 14 42 17 27 4 49 14 60 27 23 29
23 36 -7 65 -31 32 -89 35 -105 6z m81 -11 c33 -18 24 -48 -18 -59 -52 -15
-53 -15 -53 17 0 46 29 64 71 42z"/>
<path d="M6570 2430 c-16 -29 -1 -46 17 -20 14 20 16 21 34 4 27 -24 23 -121
-5 -138 -14 -8 -20 -8 -23 2 -6 17 -23 15 -23 -3 0 -18 34 -37 53 -29 40 15
56 129 24 178 -21 32 -62 35 -77 6z"/>
</g>
</svg>
